<svg xmlns="http://www.w3.org/2000/svg" width="22" height="24" viewBox="0 0 22 24">
    <path fill-rule="nonzero" d="M17.03 15.542a4.161 4.161 0 0 0-3.17 1.44l-5.619-3.481a4.464 4.464 0 0 0 .313-1.609 4.19 4.19 0 0 0-.289-1.56l5.548-3.339a4.186 4.186 0 0 0 3.217 1.49 4.233 4.233 0 0 0 4.227-4.227c0-2.33-1.897-4.25-4.227-4.25-2.329 0-4.25 1.896-4.25 4.226 0 .552.096 1.08.288 1.56L7.521 9.13a4.186 4.186 0 0 0-3.218-1.488c-2.33.024-4.226 1.92-4.226 4.25a4.233 4.233 0 0 0 4.226 4.226 4.161 4.161 0 0 0 3.17-1.44l5.619 3.481a4.464 4.464 0 0 0-.312 1.61 4.233 4.233 0 0 0 4.226 4.226 4.233 4.233 0 0 0 4.227-4.227c0-2.329-1.873-4.226-4.203-4.226z" fill="#6f8083" opacity="1"/>
</svg>