<svg xmlns="http://www.w3.org/2000/svg" xmlns:xlink="http://www.w3.org/1999/xlink" width="66" height="99" viewBox="0 0 66 99">
    <defs>
        <path id="a" d="M0 .062h65.498V59.42H0z"/>
    </defs>
    <g fill="none" fill-rule="evenodd">
        <g transform="translate(0 .598)">
            <mask id="b" fill="#fff">
                <use xlink:href="#a"/>
            </mask>
            <path fill="#50A09C" d="M.064 42.936c-.148 2.86-.19 5.996 1.627 8.249 1.177 1.459 2.962 2.31 4.714 3.04 15.884 6.617 34.433 6.928 50.542.847 1.664-.628 3.35-1.353 4.579-2.613 1.792-1.839 2.318-4.494 2.688-7.002a120.265 120.265 0 0 0 1.283-17.127c.016-4.65-.25-9.362-1.677-13.802-1.427-4.438-4.122-8.623-8.137-11.147C50.399.058 43.697.011 37.406.074L17.452.275c-3.004.03-6.08.073-8.893 1.103-7.185 2.632-6.005 10.684-6.623 16.88A522.673 522.673 0 0 0 .064 42.937" mask="url(#b)"/>
        </g>
        <path fill="#A59C88" d="M21.107 52.634c-3.013-2.844-5.102-6.527-6.41-10.409-.285-.849-.539-1.739-.427-2.626.112-.887.673-1.776 1.552-2.035.745 3.835 1.672 7.984 4.738 10.502-.554-1.765-.148-3.787 1.047-5.219.622 1.247.344 2.715.22 4.096-.122 1.38.025 2.98 1.166 3.81 1.347.982 3.423.256 4.37-1.098.945-1.354 1.042-3.093 1.007-4.73-.082-3.907-.738-7.811-2.056-11.502-.791-2.213-1.822-4.36-2.276-6.662-.454-2.3-.25-4.86 1.228-6.71a19.97 19.97 0 0 0 3.273 9.41c2.245-1.423 1.862-4.999 3.917-6.671.305-.249.715-.452 1.09-.325.252.086.43.301.578.518 1.955 2.865.383 6.922-2.298 9.163-.486.406-1.018.791-1.321 1.34-.276.5-.333 1.086-.371 1.653a42.56 42.56 0 0 0 .965 12.335c1.79.54 3.605-1.126 4.003-2.909.399-1.782-.144-3.616-.425-5.42-.126-.814-.078-1.854.695-2.188.833-.358 1.716.469 2.036 1.3.32.83.42 1.8 1.085 2.406.934.852 2.476.52 3.56-.141a7.419 7.419 0 0 0 2.564-2.619c1.214-2.107 1.436-4.892 3.434-6.325 1.525 2.213 1.333 5.22.21 7.65-1.124 2.429-3.046 4.409-4.933 6.338a4.781 4.781 0 0 0 3.614.788c.708.965.004 2.433-1.111 2.911-1.115.477-2.417.218-3.554-.208-.599-.224-1.203-.497-1.844-.49-1.38.011-2.37 1.248-3.139 2.362-.161.234-.33.504-.265.778.069.285.36.455.633.578a8.165 8.165 0 0 0 5.25.475c1.033-.253 2.021-.712 3.084-.784 1.062-.071 2.28.396 2.59 1.387.264.84-.236 1.766-.966 2.284-.73.517-1.643.712-2.53.876-8.424 1.548-17.364 2.362-23.983-3.889"/>
        <path fill="#A59C88" d="M29.308 53.153c1.78 15.202 1.561 30.406-.657 45.332 2.564.456 5.203.57 7.741.332.513-.048 1.054-.121 1.4-.385.426-.322.44-.834.426-1.299a70.436 70.436 0 0 0-.346-4.939c-1.183-11.679-4.23-23.516-2.198-34.936.147-.826.31-1.702-.17-2.498-.478-.795-1.883-1.406-2.84-.988"/>
        <path fill="#FFA1A1" d="M17.157 18.92c0 2.1-1.749 3.8-3.906 3.8s-3.906-1.7-3.906-3.8c0-2.1 1.75-3.801 3.906-3.801 2.157 0 3.906 1.701 3.906 3.8"/>
        <path fill="#DD7878" d="M15.578 17.565a.246.246 0 0 1-.249.243.246.246 0 0 1-.25-.243c0-.134.113-.243.25-.243.138 0 .25.11.25.243M15.703 19.991c0 .168-.14.304-.312.304a.308.308 0 0 1-.311-.304c0-.167.14-.303.311-.303.172 0 .312.136.312.303M13.833 18.637c0 .156-.13.283-.29.283a.287.287 0 0 1-.292-.283c0-.157.13-.283.292-.283.16 0 .29.126.29.283M13.937 21.114a.338.338 0 0 1-.342.333.338.338 0 0 1-.344-.333c0-.184.154-.334.344-.334.188 0 .342.15.342.334M13.937 19.88a.195.195 0 0 1-.197.192.195.195 0 0 1-.197-.192c0-.106.088-.192.197-.192.109 0 .197.086.197.192M16.783 18.637c0 .156-.13.283-.29.283a.287.287 0 0 1-.29-.283c0-.157.129-.283.29-.283.16 0 .29.126.29.283M11.506 20.184a.113.113 0 0 1-.114.111.113.113 0 0 1-.115-.111c0-.062.052-.112.115-.112s.114.05.114.112M11.953 18.08c0 .151-.126.273-.28.273a.277.277 0 0 1-.281-.272c0-.15.126-.273.28-.273.155 0 .281.122.281.273M12.55 21.738c0 .16-.133.29-.298.29-.165 0-.3-.13-.3-.29 0-.16.135-.29.3-.29.165 0 .298.13.298.29M14.243 22.177c0 .083-.069.15-.153.15a.151.151 0 0 1-.153-.15.15.15 0 0 1 .153-.148.15.15 0 0 1 .153.148M15.08 21.265c0 .084-.07.152-.156.152a.154.154 0 0 1-.156-.152c0-.084.07-.152.156-.152s.156.068.156.152M10.655 19.991c0 .168-.14.304-.312.304a.308.308 0 0 1-.312-.304c0-.167.14-.303.312-.303s.312.136.312.303"/>
        <path fill="#FFA1A1" d="M48.114 21.738c0 2.1-1.75 3.8-3.906 3.8-2.157 0-3.906-1.7-3.906-3.8 0-2.1 1.749-3.801 3.906-3.801s3.906 1.701 3.906 3.8"/>
        <path fill="#DD7878" d="M46.535 20.383a.246.246 0 0 1-.25.243.246.246 0 0 1-.249-.243c0-.134.112-.243.25-.243.137 0 .249.11.249.243M46.66 22.81c0 .167-.14.303-.312.303a.308.308 0 0 1-.312-.304c0-.167.14-.303.312-.303s.311.136.311.303M44.79 21.455c0 .156-.131.283-.291.283a.287.287 0 0 1-.291-.283c0-.157.13-.283.29-.283.161 0 .292.126.292.283M44.893 23.932a.338.338 0 0 1-.342.333.338.338 0 0 1-.343-.333c0-.185.153-.334.343-.334.189 0 .342.15.342.334M44.893 22.698a.195.195 0 0 1-.197.192.195.195 0 0 1-.197-.192c0-.106.088-.192.197-.192.109 0 .197.086.197.192M47.74 21.455c0 .156-.13.283-.29.283a.287.287 0 0 1-.292-.283c0-.157.13-.283.291-.283.16 0 .29.126.29.283M42.463 23.001a.113.113 0 0 1-.115.112.113.113 0 0 1-.114-.112c0-.06.051-.111.114-.111s.115.05.115.111M42.91 20.899c0 .15-.126.272-.28.272a.277.277 0 0 1-.282-.272c0-.15.126-.273.281-.273.155 0 .28.122.28.273M43.507 24.556c0 .16-.134.29-.299.29-.165 0-.299-.13-.299-.29 0-.16.134-.29.3-.29.164 0 .298.13.298.29M45.2 24.995c0 .083-.07.15-.154.15a.151.151 0 0 1-.153-.15.15.15 0 0 1 .153-.148.15.15 0 0 1 .153.148M46.036 24.083c0 .084-.07.152-.156.152a.154.154 0 0 1-.156-.152c0-.084.07-.152.156-.152.087 0 .156.068.156.152M41.61 22.81c0 .167-.139.303-.31.303a.308.308 0 0 1-.313-.304c0-.167.14-.303.312-.303s.312.136.312.303"/>
        <path fill="#FFA1A1" d="M39.547 10.716c0 2.811-2.343 5.09-5.231 5.09-2.89 0-5.232-2.279-5.232-5.09 0-2.812 2.343-5.091 5.232-5.091 2.888 0 5.23 2.279 5.23 5.09"/>
        <path fill="#DD7878" d="M37.432 8.901a.33.33 0 0 1-.334.325.33.33 0 0 1-.334-.325c0-.18.15-.324.334-.324a.33.33 0 0 1 .334.324M37.599 12.15a.411.411 0 0 1-.417.407.412.412 0 0 1-.418-.406c0-.225.187-.406.418-.406.23 0 .417.181.417.406M35.095 10.336c0 .21-.174.38-.39.38a.385.385 0 0 1-.39-.38c0-.209.175-.378.39-.378.216 0 .39.17.39.378M35.234 13.654a.453.453 0 0 1-.46.446c-.253 0-.459-.2-.459-.446 0-.247.206-.447.46-.447.253 0 .459.2.459.447M35.234 12.002a.261.261 0 0 1-.265.257.261.261 0 0 1-.264-.257c0-.142.119-.258.264-.258.146 0 .265.116.265.258M39.046 10.336c0 .21-.174.38-.39.38a.385.385 0 0 1-.39-.38c0-.209.175-.378.39-.378.216 0 .39.17.39.378M31.978 12.408c0 .083-.068.15-.153.15a.151.151 0 0 1-.153-.15c0-.082.069-.15.153-.15.085 0 .153.068.153.15M32.577 9.592a.37.37 0 0 1-.376.366.37.37 0 0 1-.376-.366.37.37 0 0 1 .376-.366.37.37 0 0 1 .376.366M33.376 14.49c0 .215-.179.389-.4.389-.22 0-.4-.174-.4-.39 0-.215.18-.389.4-.389.221 0 .4.174.4.39M35.644 15.078c0 .11-.092.2-.206.2a.202.202 0 0 1-.204-.2c0-.11.091-.2.204-.2.114 0 .206.09.206.2M36.764 13.857a.206.206 0 0 1-.208.203.206.206 0 0 1-.209-.203c0-.113.093-.204.209-.204.115 0 .208.091.208.204M30.838 12.15a.411.411 0 0 1-.418.407.412.412 0 0 1-.417-.406c0-.225.186-.406.417-.406.23 0 .418.181.418.406"/>
        <path fill="#FFA1A1" d="M63.77 28.24c0 2.812-2.343 5.091-5.232 5.091-2.889 0-5.231-2.279-5.231-5.09 0-2.812 2.342-5.09 5.231-5.09s5.231 2.278 5.231 5.09"/>
        <path fill="#DD7878" d="M61.655 26.427a.33.33 0 0 1-.335.324.33.33 0 0 1-.333-.324c0-.18.15-.325.333-.325a.33.33 0 0 1 .335.325M61.821 29.676a.411.411 0 0 1-.417.406.412.412 0 0 1-.417-.406c0-.224.186-.406.417-.406.23 0 .417.182.417.406M59.317 27.862c0 .209-.174.379-.39.379a.385.385 0 0 1-.39-.38c0-.208.176-.378.39-.378.216 0 .39.17.39.379M59.456 31.179a.453.453 0 0 1-.459.447c-.253 0-.459-.2-.459-.447s.206-.447.46-.447c.253 0 .458.2.458.447M59.456 29.527a.261.261 0 0 1-.264.257.261.261 0 0 1-.264-.257c0-.142.118-.257.264-.257.146 0 .264.115.264.257M63.268 27.862c0 .209-.174.379-.39.379a.385.385 0 0 1-.389-.38c0-.208.175-.378.39-.378.215 0 .39.17.39.379M56.2 29.933c0 .083-.068.15-.152.15a.151.151 0 0 1-.153-.15c0-.082.069-.149.153-.149.084 0 .153.067.153.15M56.8 27.117a.37.37 0 0 1-.377.366.37.37 0 0 1-.375-.366.37.37 0 0 1 .375-.365.37.37 0 0 1 .376.365M57.599 32.015c0 .215-.179.39-.4.39-.22 0-.4-.175-.4-.39 0-.215.18-.39.4-.39.221 0 .4.175.4.39M59.866 32.603c0 .11-.092.2-.205.2a.202.202 0 0 1-.205-.2c0-.11.092-.199.205-.199.113 0 .205.09.205.2M60.987 31.382a.206.206 0 0 1-.209.203.206.206 0 0 1-.208-.203c0-.112.093-.203.208-.203.115 0 .209.09.209.203M55.06 29.676a.411.411 0 0 1-.417.406.412.412 0 0 1-.418-.406c0-.224.187-.406.418-.406.23 0 .417.182.417.406"/>
        <path fill="#FFA1A1" d="M58.044 14.019c-1.137 1.553-3.352 1.914-4.948.808-1.596-1.107-1.967-3.262-.83-4.815 1.136-1.553 3.351-1.915 4.947-.809 1.596 1.107 1.968 3.263.83 4.816"/>
        <path fill="#DD7878" d="M57.61 12.207a.23.23 0 0 1-.317.051.216.216 0 0 1-.052-.307.23.23 0 0 1 .315-.052c.103.071.126.209.053.308M56.388 14.066a.288.288 0 0 1-.395.064.27.27 0 0 1-.067-.384.288.288 0 0 1 .396-.065.27.27 0 0 1 .066.385M55.738 12.104a.269.269 0 0 1-.368.06.253.253 0 0 1-.062-.358.27.27 0 0 1 .368-.06.252.252 0 0 1 .062.358M54.474 13.99a.316.316 0 0 1-.434.07.297.297 0 0 1-.073-.422.317.317 0 0 1 .434-.07c.14.096.172.286.073.422M55.142 13.077a.182.182 0 0 1-.25.041.172.172 0 0 1-.043-.243.183.183 0 0 1 .25-.041c.081.056.1.165.043.243M57.92 13.618a.269.269 0 0 1-.368.06.253.253 0 0 1-.062-.359.27.27 0 0 1 .369-.06.252.252 0 0 1 .061.359M53.18 12.055a.105.105 0 0 1-.145.024.1.1 0 0 1-.025-.142.106.106 0 0 1 .145-.023.099.099 0 0 1 .024.141M54.648 10.729a.26.26 0 0 1-.355.058.244.244 0 0 1-.06-.346.26.26 0 0 1 .356-.058c.114.08.14.234.06.346M53.11 13.74a.276.276 0 0 1-.379.062.26.26 0 0 1-.063-.368.276.276 0 0 1 .378-.062.26.26 0 0 1 .064.368M54.124 14.934a.141.141 0 0 1-.194.031.133.133 0 0 1-.032-.189.142.142 0 0 1 .193-.031.133.133 0 0 1 .033.189M55.237 14.688a.144.144 0 0 1-.198.032.135.135 0 0 1-.033-.192.144.144 0 0 1 .198-.032c.063.044.078.13.033.192M52.653 11.476a.288.288 0 0 1-.394.065.27.27 0 0 1-.067-.384.288.288 0 0 1 .395-.065.27.27 0 0 1 .066.384"/>
        <path fill="#FFA1A1" d="M57.039 46.47c-1.137 1.553-3.352 1.914-4.948.808-1.596-1.107-1.968-3.262-.83-4.815 1.136-1.553 3.351-1.915 4.947-.809 1.596 1.107 1.967 3.263.83 4.816"/>
        <path fill="#DD7878" d="M56.604 44.658a.23.23 0 0 1-.315.051.216.216 0 0 1-.053-.307.23.23 0 0 1 .315-.052c.103.07.126.209.053.308M55.383 46.516a.288.288 0 0 1-.395.065.27.27 0 0 1-.067-.384.288.288 0 0 1 .396-.065.27.27 0 0 1 .066.384M54.733 44.555a.27.27 0 0 1-.368.06.252.252 0 0 1-.062-.358.27.27 0 0 1 .368-.06.253.253 0 0 1 .062.358M53.469 46.44a.316.316 0 0 1-.434.071.297.297 0 0 1-.073-.422.317.317 0 0 1 .434-.07c.14.096.172.286.073.422M54.136 45.528a.182.182 0 0 1-.25.041.172.172 0 0 1-.042-.243.183.183 0 0 1 .25-.041c.081.056.1.165.042.243M56.915 46.069a.27.27 0 0 1-.368.06.252.252 0 0 1-.062-.359.27.27 0 0 1 .369-.06.252.252 0 0 1 .061.359M52.174 44.506a.105.105 0 0 1-.144.024.1.1 0 0 1-.025-.142.106.106 0 0 1 .145-.023.1.1 0 0 1 .024.141M53.643 43.18a.26.26 0 0 1-.355.058.244.244 0 0 1-.06-.346.26.26 0 0 1 .356-.058c.114.079.14.234.06.346M52.105 46.191a.276.276 0 0 1-.379.062.26.26 0 0 1-.063-.368.276.276 0 0 1 .378-.062.26.26 0 0 1 .064.368M53.119 47.385a.141.141 0 0 1-.194.031.133.133 0 0 1-.032-.189.142.142 0 0 1 .193-.031.133.133 0 0 1 .033.189M54.232 47.139a.144.144 0 0 1-.198.032.135.135 0 0 1-.033-.192.144.144 0 0 1 .198-.032c.063.044.078.13.033.192M51.648 43.927a.288.288 0 0 1-.395.065.27.27 0 0 1-.066-.384.288.288 0 0 1 .395-.065.27.27 0 0 1 .066.384"/>
        <path fill="#FFA1A1" d="M9.57 36.016c-.37 1.378-1.818 2.201-3.232 1.841-1.416-.361-2.263-1.77-1.892-3.147.37-1.377 1.818-2.201 3.233-1.84 1.416.36 2.263 1.769 1.892 3.146"/>
        <path fill="#DD7878" d="M8.774 34.864a.17.17 0 0 1-.206.117.164.164 0 0 1-.121-.2.17.17 0 0 1 .206-.118c.09.022.145.113.121.2M8.428 36.476a.212.212 0 0 1-.258.147.205.205 0 0 1-.151-.251.211.211 0 0 1 .258-.147c.113.029.18.14.15.251M7.44 35.275a.198.198 0 0 1-.24.137.192.192 0 0 1-.142-.234.198.198 0 0 1 .24-.138.192.192 0 0 1 .142.235M7.07 36.917a.233.233 0 0 1-.283.162.227.227 0 0 1-.166-.277.234.234 0 0 1 .284-.16.226.226 0 0 1 .166.275M7.289 36.108a.135.135 0 0 1-.164.093.13.13 0 0 1-.096-.16.135.135 0 0 1 .164-.092.13.13 0 0 1 .096.159M9.376 35.768a.198.198 0 0 1-.241.137.192.192 0 0 1-.141-.234.198.198 0 0 1 .24-.137.192.192 0 0 1 .142.234M5.64 35.9a.078.078 0 0 1-.095.055.076.076 0 0 1-.055-.093.078.078 0 0 1 .095-.054c.041.01.066.052.055.092M6.305 34.596a.19.19 0 0 1-.233.132.184.184 0 0 1-.135-.226.19.19 0 0 1 .232-.132.184.184 0 0 1 .136.226M6.05 37.095a.202.202 0 0 1-.246.14.196.196 0 0 1-.145-.24.203.203 0 0 1 .247-.141.197.197 0 0 1 .145.24M7.084 37.666a.104.104 0 0 1-.127.072.1.1 0 0 1-.074-.123.105.105 0 0 1 .127-.072c.055.014.089.069.074.123M7.794 37.208a.106.106 0 0 1-.13.073.103.103 0 0 1-.075-.126.106.106 0 0 1 .13-.073c.056.015.09.07.075.126M5.115 35.632a.212.212 0 0 1-.257.147.206.206 0 0 1-.151-.251.211.211 0 0 1 .257-.147c.113.029.18.14.151.251"/>
        <path fill="#FFA1A1" d="M24.992 38.03c-.588 2.183-2.884 3.49-5.128 2.919-2.245-.573-3.587-2.807-3-4.99.588-2.185 2.884-3.492 5.128-2.92 2.244.572 3.587 2.807 3 4.99"/>
        <path fill="#DD7878" d="M23.728 36.202a.268.268 0 0 1-.327.186.26.26 0 0 1-.192-.318.269.269 0 0 1 .328-.187c.143.037.228.18.191.319M23.179 38.759a.337.337 0 0 1-.41.233.326.326 0 0 1-.24-.398.337.337 0 0 1 .41-.233.325.325 0 0 1 .24.398M21.612 36.854a.314.314 0 0 1-.381.217.304.304 0 0 1-.224-.372.314.314 0 0 1 .382-.217c.167.042.267.21.223.372M21.027 39.458a.37.37 0 0 1-.45.256.358.358 0 0 1-.263-.438.37.37 0 0 1 .45-.256c.197.05.315.247.263.438M21.372 38.175a.213.213 0 0 1-.259.147.206.206 0 0 1-.151-.252.213.213 0 0 1 .259-.147.206.206 0 0 1 .151.252M24.682 37.636a.314.314 0 0 1-.382.217.304.304 0 0 1-.223-.372.314.314 0 0 1 .382-.217c.167.043.266.21.223.372M18.759 37.846a.123.123 0 0 1-.15.085.12.12 0 0 1-.088-.146.123.123 0 0 1 .15-.085.119.119 0 0 1 .088.146M19.812 35.777a.303.303 0 0 1-.369.21.293.293 0 0 1-.214-.359.302.302 0 0 1 .368-.21c.161.041.257.202.215.359M19.41 39.74a.322.322 0 0 1-.392.223.312.312 0 0 1-.23-.382.322.322 0 0 1 .392-.223.312.312 0 0 1 .23.382M21.048 40.646a.165.165 0 0 1-.201.114.16.16 0 0 1-.117-.195.164.164 0 0 1 .2-.115.16.16 0 0 1 .118.196M22.174 39.919a.167.167 0 0 1-.205.116.162.162 0 0 1-.12-.199.17.17 0 0 1 .205-.117c.09.024.143.113.12.2M17.926 37.42a.337.337 0 0 1-.41.233.326.326 0 0 1-.239-.398.337.337 0 0 1 .41-.233.325.325 0 0 1 .24.398"/>
        <path fill="#FFA1A1" d="M13.051 50.377c-.588 2.184-2.884 3.491-5.128 2.92-2.244-.573-3.587-2.807-3-4.99.589-2.185 2.885-3.492 5.129-2.92 2.244.572 3.587 2.806 2.999 4.99"/>
        <path fill="#DD7878" d="M11.788 48.55a.268.268 0 0 1-.328.185.26.26 0 0 1-.191-.318.269.269 0 0 1 .327-.186c.143.037.229.18.192.318M11.238 51.107a.337.337 0 0 1-.41.233.325.325 0 0 1-.238-.398.335.335 0 0 1 .408-.233.325.325 0 0 1 .24.398M9.672 49.201a.314.314 0 0 1-.382.218.304.304 0 0 1-.223-.372.314.314 0 0 1 .381-.217c.168.042.267.21.224.371M9.086 51.806a.37.37 0 0 1-.45.256.358.358 0 0 1-.263-.438.37.37 0 0 1 .45-.256c.197.05.315.246.263.438M9.432 50.523a.213.213 0 0 1-.26.147.206.206 0 0 1-.151-.252.213.213 0 0 1 .26-.148.206.206 0 0 1 .15.253M12.741 49.984a.314.314 0 0 1-.382.217.304.304 0 0 1-.223-.372.314.314 0 0 1 .382-.217.304.304 0 0 1 .223.372M6.818 50.194a.123.123 0 0 1-.15.085.12.12 0 0 1-.088-.146.123.123 0 0 1 .15-.085.119.119 0 0 1 .088.146M7.871 48.124a.302.302 0 0 1-.368.21.293.293 0 0 1-.215-.358.302.302 0 0 1 .368-.21c.161.041.257.201.215.358M7.469 52.088a.322.322 0 0 1-.393.223.312.312 0 0 1-.228-.382.321.321 0 0 1 .391-.223.312.312 0 0 1 .23.382M9.107 52.994a.165.165 0 0 1-.2.114.16.16 0 0 1-.118-.196.164.164 0 0 1 .2-.114.16.16 0 0 1 .118.196M10.233 52.267a.167.167 0 0 1-.205.116.162.162 0 0 1-.12-.199.17.17 0 0 1 .205-.117c.09.023.143.112.12.2M5.985 49.768a.337.337 0 0 1-.409.233.325.325 0 0 1-.239-.398.335.335 0 0 1 .409-.233.325.325 0 0 1 .24.398"/>
        <path fill="#FFA1A1" d="M21.949 12.658c-.37 1.377-1.819 2.2-3.233 1.84-1.416-.36-2.263-1.77-1.892-3.147.37-1.377 1.819-2.2 3.233-1.84 1.416.36 2.263 1.77 1.892 3.147"/>
        <path fill="#DD7878" d="M21.152 11.505a.17.17 0 0 1-.206.117.164.164 0 0 1-.121-.2.17.17 0 0 1 .206-.118c.091.023.145.113.121.2M20.806 13.117a.212.212 0 0 1-.258.148.206.206 0 0 1-.151-.252.211.211 0 0 1 .258-.146c.113.028.18.14.15.25M19.818 11.916a.198.198 0 0 1-.24.137.192.192 0 0 1-.142-.234.198.198 0 0 1 .241-.137.192.192 0 0 1 .141.234M19.449 13.558a.233.233 0 0 1-.284.162.227.227 0 0 1-.166-.277.234.234 0 0 1 .284-.161.226.226 0 0 1 .166.276M19.667 12.75a.135.135 0 0 1-.164.092.13.13 0 0 1-.095-.159.134.134 0 0 1 .163-.093.13.13 0 0 1 .096.16M21.754 12.41a.198.198 0 0 1-.241.137.192.192 0 0 1-.141-.235.198.198 0 0 1 .24-.137.192.192 0 0 1 .142.234M18.018 12.542a.078.078 0 0 1-.094.054.076.076 0 0 1-.056-.093.078.078 0 0 1 .095-.053c.041.01.066.051.055.092M18.683 11.237a.19.19 0 0 1-.233.132.184.184 0 0 1-.135-.226.19.19 0 0 1 .232-.132.184.184 0 0 1 .136.226M18.429 13.736a.202.202 0 0 1-.247.14.197.197 0 0 1-.145-.24.203.203 0 0 1 .247-.14.197.197 0 0 1 .145.24M19.462 14.307a.103.103 0 0 1-.127.072.1.1 0 0 1-.074-.122.105.105 0 0 1 .127-.073c.055.015.089.07.074.123M20.172 13.849a.106.106 0 0 1-.13.073.103.103 0 0 1-.074-.125.106.106 0 0 1 .129-.074c.056.015.09.071.075.126M17.493 12.273a.212.212 0 0 1-.257.147.206.206 0 0 1-.151-.251.211.211 0 0 1 .257-.147c.114.029.18.141.151.251"/>
    </g>
</svg>
