<svg xmlns="http://www.w3.org/2000/svg" width="43" height="99" viewBox="0 0 43 99">
    <g fill="none" fill-rule="evenodd">
        <path fill="#3E605A" d="M.354 73.942a311.906 311.906 0 0 0 41.98.41c.75-12.205-3.038-24.176-6.881-35.757-3.625-10.923-6.786-22.344-11.24-32.944C20.038-4.294 13.795.295 11.499 8.586 9.98 14.073-2.215 73.744.354 73.942"/>
        <path fill="#A59C88" d="M19.12 20.591c-.829 22.48.09 48.146-1.212 70.604-.1 1.738-.211 3.571.594 5.126.805 1.556 2.891 2.631 4.445 1.762 1.513-.847 1.668-2.867 1.643-4.562-.181-12.251-1.153-43.68-2.084-49.76-.492-3.213-.788-11.778-1.511-14.95l-1.875-8.22"/>
        <path stroke="#467C71" stroke-linecap="round" stroke-linejoin="round" d="M15.89 7.587c-1.62 2.76-2.17 5.97-2.695 9.104M12.556 20.759a74.44 74.44 0 0 0-.371 8.353M16.444 18.192l-.882 6.52M9.36 31.898a31.745 31.745 0 0 1-1.68 8.888M13.955 34.894a33.91 33.91 0 0 0-.188 5.786M15.756 28.685a59.799 59.799 0 0 0 .04 4.822M6.854 43.686a250.39 250.39 0 0 1-1.082 7.486M5.099 55.898c-.33 2.673-.661 5.347-.993 8.02M3.818 66.816c.083 1.93.007 3.865-.228 5.782M7.947 62.643a66.634 66.634 0 0 0-.498 5.993M10.66 66.923a31.735 31.735 0 0 0 .148 5.888M15.965 58.997v5.034M13.745 66.924c.124 1.783.206 3.568.243 5.354M10.888 45.608v7.069M12.736 53.531a39.888 39.888 0 0 0-.18 6.43M9.562 56.212a25.099 25.099 0 0 1-.215 3.964M14.596 47.112c.23 2.16.369 4.329.42 6.5.006.255-.022.565-.257.68M16.183 40.574l.11 5.462M10.903 36.718l-.114 4.605M18.936 9.723a24.995 24.995 0 0 0-.53 4.822M17.875 4.186c.375-.371.8-.694 1.259-.96.1-.057.21-.114.325-.107.1.005.189.056.272.108a5.307 5.307 0 0 1 1.9 2.026M22.248 7.693a58.385 58.385 0 0 0 2.559 6.633M21.55 13.063a25.445 25.445 0 0 0 2.292 4.35M21.584 18.297a57.352 57.352 0 0 0 1.362 4.058M26.878 19.964l.415 1.048 1.247 3.147c.374.946.753 1.907.841 2.917M26.797 26.134a99.856 99.856 0 0 0 1.74 6.485M23.033 27.289c0 2.085 1.61 4.095 1.02 6.1M25.21 36.931c.02 1.333.372 2.638.72 3.927l1.019 3.765M30.271 38.548a76.547 76.547 0 0 1 1.637 8.982M31.032 31.492l2.45 5.623M34.496 43.685a40.773 40.773 0 0 1 2.353 7.83M38.571 55.25l.39 4.494M32.408 50.215a30.803 30.803 0 0 1 1.344 4.923M27.105 48.822c.246 2.276.358 4.566.335 6.854M27.535 58.89a38.894 38.894 0 0 1-.326 7.924M31.24 55.475c.433 2.054.806 4.118 1.118 6.192M36.122 59.322c.195 1.824.449 3.642.762 5.45M38.677 63.927c.224 1.365.379 2.74.466 4.12.053.844.048 1.783-.535 2.412M32.406 64.031l.228 6.32M29.446 68.102l-.11 4.498M25.902 69.708a11.916 11.916 0 0 0 .288 3.437M36.478 68.102c.082 1.463.162 2.927.243 4.39"/>
    </g>
</svg>
