<svg xmlns="http://www.w3.org/2000/svg" xmlns:xlink="http://www.w3.org/1999/xlink" width="70" height="101" viewBox="0 0 70 101">
    <defs>
        <path id="a" d="M0 .165h69.714v58.601H0z"/>
        <path id="c" d="M.56.652h11.9v84.4H.56z"/>
    </defs>
    <g fill="none" fill-rule="evenodd">
        <g transform="translate(0 .5)">
            <mask id="b" fill="#fff">
                <use xlink:href="#a"/>
            </mask>
            <path fill="#DDCFFF" d="M11.308 6.058C1.57 13.798-3.208 30.055 2.374 42.127c3.588 7.757 10.65 12.716 18 14.885 7.348 2.17 15.05 1.89 22.622 1.44 7.493-.446 15.707-1.417 20.947-7.653 1.884-2.243 3.236-5.035 4.176-7.972 2.636-8.24 1.975-17.816-1.759-25.463-4.596-9.417-13.178-15.11-22.262-16.045-11.405-1.176-22.7-3.281-32.79 4.74" mask="url(#b)"/>
        </g>
        <path fill="#BCAFE8" d="M11.649 11.14c1.57-1.289 3.307-2.595 5.373-2.79.88 1.812.174 4.088-1.363 5.448-1.117.986-4.094 2.477-5.664 1.608-2.063-1.143.52-3.335 1.654-4.266M15.428 28.209c-.73-1.845-1.417-3.845-.895-5.752 2.096-.155 4.1 1.263 4.911 3.103.588 1.336 1.029 4.504-.375 5.6-1.845 1.44-3.114-1.618-3.64-2.951M4.345 23.716c.973-1.74 2.096-3.555 3.947-4.445 1.51 1.387 1.719 3.751.803 5.547-.665 1.303-2.873 3.714-4.668 3.443-2.359-.358-.785-3.288-.082-4.545M6.256 36.805c1.65-1.197 3.467-2.401 5.54-2.478.764 1.859-.085 4.09-1.706 5.36-1.177.921-4.243 2.239-5.756 1.281-1.986-1.26.73-3.298 1.922-4.163M42.604 27.447c.892-1.139 1.9-2.313 3.32-2.755.916 1.143.792 2.848-.066 4.031-.623.859-2.472 2.346-3.718 1.966-1.638-.499-.18-2.42.464-3.242M32.657 45.042c-.126-1.934-.166-4.003.906-5.652 2.016.427 3.47 2.309 3.673 4.261.148 1.417-.4 4.515-2.053 5.162-2.171.85-2.436-2.374-2.526-3.771M26.57 38.127c-.825-1.772-1.62-3.698-1.22-5.598 2.047-.265 4.1 1.02 5.005 2.782.657 1.28 1.279 4.366-.033 5.518-1.725 1.513-3.155-1.422-3.751-2.702M41.857 39.502c.798-1.784 1.735-3.652 3.47-4.673 1.603 1.237 2.019 3.537 1.281 5.37-.534 1.33-2.482 3.87-4.265 3.748-2.343-.16-1.062-3.157-.486-4.445M26.735 56.984c-1.22-.82-2.48-1.75-2.978-3.088 1.183-.894 2.982-.817 4.247-.03.919.572 2.528 2.292 2.157 3.483-.487 1.566-2.545.228-3.426-.365M20.513 50.772c-1.22-.821-2.48-1.75-2.978-3.088 1.183-.895 2.982-.817 4.247-.03.919.571 2.528 2.292 2.157 3.483-.487 1.566-2.545.227-3.426-.365M20.836 44.112c-.353-.778-.693-1.623-.51-2.452.896-.107 1.788.461 2.176 1.236.282.561.54 1.912-.038 2.41-.76.655-1.372-.633-1.628-1.194M31.324 11.64c.253-1.193.58-2.454 1.511-3.29 1.151.568 1.713 1.933 1.504 3.149-.152.881-1.011 2.677-2.124 2.816-1.462.183-1.074-1.814-.891-2.675M20.246 14.862c.982-.782 2.067-1.573 3.344-1.676.525 1.126.068 2.525-.894 3.35-.698.6-2.55 1.495-3.511.944-1.263-.723.352-2.053 1.061-2.618M24.603 7.41c.982-.783 2.067-1.574 3.344-1.677.525 1.126.067 2.525-.894 3.35-.698.6-2.55 1.495-3.512.945-1.262-.724.353-2.054 1.062-2.619M24.656 19.05c.753-.983 1.605-2 2.82-2.391.795.972.706 2.434-.018 3.456-.525.742-2.095 2.034-3.168 1.72-1.409-.414-.18-2.074.366-2.785M20.653 3.74c1.12-.592 2.344-1.174 3.618-1.045.291 1.2-.437 2.492-1.547 3.13-.806.463-2.803 1.007-3.636.294-1.095-.937.756-1.952 1.565-2.38M26.398 49.203c-.353-.778-.693-1.623-.51-2.452.896-.107 1.788.462 2.176 1.236.282.561.54 1.912-.038 2.41-.76.656-1.372-.633-1.628-1.194M11.5 49.778c-.916-1.196-1.834-2.51-1.857-3.988 1.482-.51 3.229.135 4.202 1.312.706.854 1.692 3.06.908 4.118-1.03 1.391-2.592-.58-3.253-1.442M58.406 11.14c-1.57-1.289-3.308-2.595-5.373-2.79-.88 1.812-.174 4.088 1.363 5.448 1.117.986 4.094 2.477 5.664 1.608 2.063-1.143-.52-3.335-1.654-4.266M57.939 27.85c1.06-1.694 2.108-3.547 1.946-5.512-2.034-.503-4.27.56-5.409 2.236-.826 1.216-1.847 4.26-.668 5.575 1.549 1.726 3.365-1.074 4.13-2.298M65.71 23.716c-.973-1.74-2.096-3.555-3.947-4.445-1.51 1.387-1.719 3.751-.803 5.547.665 1.303 2.873 3.714 4.668 3.443 2.358-.358.785-3.288.082-4.545M53.504 43.24c1.467-1.048 2.981-2.228 3.544-3.886-1.484-1.06-3.689-.907-5.214.1-1.107.73-3.02 2.894-2.523 4.345.656 1.906 3.133.197 4.193-.56M39.593 53.064c.256-1.398.46-2.9-.18-4.183-1.504.157-2.722 1.416-3.035 2.821-.227 1.02-.091 3.317 1.057 3.914 1.508.784 1.974-1.542 2.158-2.552M43.32 56.984c1.219-.82 2.48-1.75 2.978-3.088-1.184-.894-2.982-.817-4.248-.03-.918.572-2.527 2.292-2.156 3.483.487 1.566 2.545.228 3.426-.365M55.75 49.933c1.219-.82 2.48-1.75 2.978-3.087-1.184-.895-2.982-.818-4.248-.03-.918.57-2.527 2.291-2.156 3.482.487 1.566 2.545.228 3.425-.365M21.634 37.136c.354-.777.693-1.622.51-2.451-.895-.108-1.787.461-2.176 1.235-.28.562-.54 1.913.039 2.41.76.656 1.372-.632 1.627-1.194M52.953 33.153c-.253-1.193-.581-2.454-1.511-3.29-1.151.568-1.713 1.933-1.504 3.148.152.882 1.01 2.678 2.124 2.817 1.462.183 1.074-1.814.89-2.675M39.08 5.906c-.982-.782-2.067-1.573-3.343-1.676-.526 1.126-.068 2.525.894 3.351.697.6 2.55 1.494 3.51.944 1.263-.724-.352-2.054-1.061-2.619M53.666 15.11c-.981-.782-2.066-1.573-3.343-1.676-.526 1.126-.068 2.525.894 3.35.698.6 2.55 1.495 3.51.944 1.263-.723-.352-2.053-1.061-2.618M48.562 17.68c-.754-.983-1.606-2-2.82-2.391-.795.972-.706 2.434.018 3.456.525.742 2.095 2.034 3.168 1.72 1.409-.414.179-2.074-.366-2.785M47.801 8.6c.467-1.133.91-2.362.605-3.543-1.292-.113-2.543.745-3.06 1.875-.375.82-.676 2.77.18 3.46 1.126.904 1.938-.974 2.275-1.792M47.265 49.145c.353-.778.693-1.623.51-2.451-.896-.108-1.788.46-2.176 1.235-.281.561-.54 1.912.038 2.41.76.656 1.372-.633 1.628-1.194M64.48 41.74c-.434-1.42-.965-2.915-2.18-3.838-1.333.799-1.868 2.504-1.485 3.956.278 1.052 1.51 3.144 2.872 3.205 1.788.08 1.106-2.298.793-3.324"/>
        <g transform="translate(32.2 15.783)">
            <mask id="d" fill="#fff">
                <use xlink:href="#c"/>
            </mask>
            <path fill="#7C99A5" d="M1.294 84.975c3.565-1.282 7.427.453 11.166 0-1.526.185-6.27-62.733-6.964-68.203A217.81 217.81 0 0 0 4.328 8.72C4.05 7.024 3.978 2.4 2.772 1.224.741-.758.751 2.953.711 4.127a266.736 266.736 0 0 0-.15 8.598c-.025 11.344.58 22.673 1.017 34.003.49 12.741.776 25.529-.284 38.247" mask="url(#d)"/>
        </g>
        <path fill="#7C99A5" d="M31.842 27.06c1.28.493 2.811 1.177 2.831 2.357.01.603-.406 1.147-.808 1.648-.089.11-.19.229-.342.27-.117.03-.245.007-.366-.016-6.231-1.274-10.447-7.371-13.46-11.67 3.552 3.04 7.503 5.628 12.145 7.412M32.65 45.964c1.874.693 4.112 1.656 4.142 3.316.015.85-.595 1.614-1.183 2.32-.13.156-.277.322-.5.379-.172.043-.358.012-.535-.023-9.117-1.791-15.284-10.373-19.692-16.423 5.197 4.277 10.977 7.92 17.768 10.431M38.907 35.499c-1.875.693-4.114 1.656-4.143 3.316-.015.85.596 1.614 1.183 2.32.13.156.277.322.5.379.172.043.359.012.535-.023C46.1 39.7 52.267 31.118 56.675 25.068c-5.198 4.277-10.978 7.92-17.768 10.43M35.492 18.482c-.707.261-1.552.624-1.563 1.25-.006.322.224.61.446.877.05.058.105.121.189.142a.474.474 0 0 0 .202-.008c3.44-.677 5.767-3.915 7.43-6.198-1.96 1.614-4.142 2.989-6.704 3.937"/>
    </g>
</svg>
