<svg xmlns="http://www.w3.org/2000/svg" xmlns:xlink="http://www.w3.org/1999/xlink" width="79" height="156" viewBox="0 0 79 156">
    <defs>
        <path id="a" d="M.182.199h28.634v29.507H.182z"/>
        <path id="c" d="M.205.143h35.598v37.85H.205z"/>
        <path id="e" d="M0 .303h35.414v37.85H0z"/>
    </defs>
    <g fill="none" fill-rule="evenodd">
        <g transform="translate(23.4)">
            <mask id="b" fill="#fff">
                <use xlink:href="#a"/>
            </mask>
            <path fill="#D3C863" d="M20.992 1.174C15.107-.947 8.247.456 3.486 4.753c-.815.736-1.582 1.562-2.096 2.566C.743 8.581.532 10.044.389 11.478c-.275 2.732-.34 5.52.214 8.202.553 2.682 1.77 5.266 3.723 7.024 2.302 2.07 5.395 2.819 8.386 2.97 2.995.152 6.023-.23 8.87-1.243 1.643-.584 3.262-1.406 4.448-2.766 1.024-1.174 1.665-2.683 2.095-4.23 1.266-4.545.774-9.633-1.333-13.798-.795-1.57-4.274-5.768-5.8-6.463" mask="url(#b)"/>
        </g>
        <path stroke="#E2D788" stroke-linecap="round" stroke-linejoin="round" d="M30.523 6.554c-2.51 2.317-4.022 5.728-4.07 9.187M26.505 17.782c-.266 2.242.5 4.608 1.983 6.125M31.54 25.948c.37.858.983 1.52 1.667 1.965.684.445 1.44.688 2.198.85.74.157 1.49.24 2.24.247M29.505 11.658c-.923 1.443-1.245 3.37-.854 5.104M31.54 19.824c.445 1.662 1.558 3.15 3.052 4.083M33.763 13.7a8.208 8.208 0 0 0 .36 4.69c.074.196.219.427.454.412M35.61 20.845c.317.879.988 1.404 1.666 1.617.677.213 1.38.164 2.074.192.131.006.298.05.33.232M39.68 25.806c1.181.302 2.4.075 3.58-.237a27.083 27.083 0 0 0 4.559-1.662M42.732 27.99l4.39-1.538c.258-.09.535-.2.697-.504M32.558 10.637c1.598-2.024 3.763-3.472 6.104-4.083M32.558 4.513c.674-.753 1.527-1.226 2.402-1.516.876-.29 1.782-.41 2.685-.526M28.488 4.513A9.33 9.33 0 0 1 31.54 2.47M40.697 3.51a6.83 6.83 0 0 1 4.07 1.003M40.697 8.596c-1.044.774-1.483 2.107-1.842 3.358-.164.575-.319 1.219-.037 1.745M40.697 16.762c.88.85 1.86 1.554 2.922 1.87 1.063.314 2.219.216 3.183-.457M42.78 10.637c-.158.625.087 1.295.491 1.805.405.509.954.887 1.496 1.257M47.819 9.617c.752 1.479 1.11 3.316.997 5.103M49.854 17.782c-.31 1.288-.866 2.623-2.013 3.341-.897.561-2.01.66-3.074.742M41.714 6.554c1.485-.004 2.964.368 4.07 1.021"/>
        <g transform="translate(42.303 24.927)">
            <mask id="d" fill="#fff">
                <use xlink:href="#c"/>
            </mask>
            <path fill="#D1BD2F" d="M26.076 1.394C18.76-1.326 10.23.473 4.312 5.984c-1.014.943-1.966 2.005-2.606 3.293C.903 10.896.64 12.772.462 14.61.12 18.115.039 21.693.727 25.132c.688 3.44 2.201 6.755 4.63 9.01 2.861 2.656 6.707 3.615 10.426 3.81 3.723.195 7.486-.296 11.027-1.595 2.042-.749 4.055-1.804 5.53-3.547 1.273-1.506 2.07-3.443 2.604-5.426 1.574-5.831.963-12.356-1.658-17.7-.989-2.015-5.312-7.398-7.21-8.29" mask="url(#d)"/>
        </g>
        <path stroke="#E0CE68" stroke-linecap="round" stroke-linejoin="round" stroke-width="1.5" d="M49.854 34.114c-2.51 2.832-4.022 7.001-4.07 11.228M46.88 47.383c-.4 2.99.748 6.144 2.974 8.166M51.889 57.59c.492.858 1.31 1.52 2.222 1.965.912.445 1.919.689 2.93.85.986.158 1.986.241 2.987.248M49.854 40.238c-.923 2.02-1.246 4.719-.854 7.145M51.889 50.446c.593 2.077 2.076 3.936 4.07 5.103M56.15 42.28a11.546 11.546 0 0 0 .364 5.63c.077.234.223.511.462.493M57.993 51.466c.397.88 1.235 1.404 2.082 1.617.848.213 1.725.165 2.593.193.165.005.372.05.412.232M62.063 56.428c1.477.302 3 .076 4.475-.237a39.649 39.649 0 0 0 5.7-1.663M67.15 59.632l6.148-1.538c.36-.09.748-.2.974-.503M52.906 38.197c1.865-2.532 4.39-4.341 7.122-5.104M53.923 30.031c.945-.753 2.138-1.226 3.364-1.517 1.227-.29 2.496-.408 3.758-.524M48.836 31.052c1.198-1.34 2.585-2.384 4.07-3.062M64.098 30.05c1.765-.106 3.564.25 5.087 1.002M63.08 36.155c-1.044 1.085-1.483 2.95-1.841 4.702-.165.803-.32 1.706-.037 2.444M64.098 46.363c1.026.85 2.168 1.554 3.41 1.87 1.24.314 2.588.216 3.712-.458M66.181 38.197c-.158.833.087 1.726.491 2.405.404.68.954 1.184 1.495 1.678M72.237 37.176c1.505 1.775 2.222 3.98 1.993 6.125M75.29 47.383c-.37 1.61-1.039 3.278-2.417 4.176-1.075.702-2.411.824-3.688.928M66.133 34.114c1.484-.008 2.963.734 4.07 2.041"/>
        <g transform="translate(0 39.218)">
            <mask id="f" fill="#fff">
                <use xlink:href="#e"/>
            </mask>
            <path fill="#C1A816" d="M25.737 1.554C18.459-1.166 9.974.632 4.085 6.144c-1.008.944-1.955 2.004-2.592 3.292C.694 11.055.433 12.93.255 14.77c-.34 3.504-.42 7.082.264 10.522.685 3.44 2.19 6.754 4.606 9.01 2.847 2.655 6.673 3.614 10.372 3.81 3.704.194 7.448-.296 10.971-1.596 2.03-.748 4.034-1.803 5.5-3.547 1.267-1.506 2.06-3.443 2.592-5.425 1.565-5.832.957-12.357-1.65-17.7-.984-2.015-5.285-7.398-7.173-8.29" mask="url(#f)"/>
        </g>
        <path stroke="#D8BF44" stroke-linecap="round" stroke-linejoin="round" stroke-width="1.5" d="M7.122 48.404c-2.511 2.832-4.022 7.001-4.07 11.228M4.148 61.674c-.4 2.988.749 6.143 2.974 8.165M9.157 71.88c.492.859 1.31 1.52 2.222 1.965.913.446 1.92.689 2.93.85.987.158 1.986.242 2.987.248M8.14 54.528c-.924 2.02-1.246 4.72-.854 7.146M9.157 64.736c.594 2.077 2.076 3.936 4.07 5.103M13.417 56.57a11.546 11.546 0 0 0 .366 5.63c.076.234.222.511.46.493M15.261 65.756c.397.88 1.235 1.404 2.082 1.617.848.213 1.726.165 2.593.193.165.005.372.05.412.232M19.331 70.718c1.478.302 3 .076 4.475-.237a39.665 39.665 0 0 0 5.7-1.662M24.418 73.922l6.148-1.538c.36-.09.748-.199.974-.503M11.192 52.487c1.865-2.532 4.39-4.34 7.122-5.104M12.21 44.321c.944-.753 2.137-1.226 3.363-1.516 1.227-.29 2.495-.409 3.758-.525M6.105 45.342c1.197-1.34 2.584-2.384 4.07-3.062M21.366 44.34c1.765-.105 3.564.25 5.087 1.002M20.348 50.446c-1.044 1.084-1.483 2.95-1.841 4.701-.165.804-.319 1.706-.037 2.444M21.366 60.653c1.027.85 2.169 1.554 3.41 1.87 1.24.314 2.588.216 3.712-.457M23.45 52.487c-.159.833.086 1.726.49 2.405.405.68.955 1.184 1.496 1.678M30.523 51.466c1.504 1.775 2.222 3.98 1.993 6.125M32.558 61.674c-.37 1.61-1.039 3.277-2.416 4.176-1.076.702-2.412.824-3.689.927M23.4 48.404c1.485-.008 2.965.734 4.07 2.042"/>
        <path fill="#72683B" d="M38.438 118.163c-.062 1.872-.15 3.778-.663 5.527-.217.74-.512 1.553-.278 2.284.334 1.04 1.427 1.098 2.285.985l5.922-.78c.524-7.2-1.671-14.212-2.479-21.368-.366-3.244-.446-6.53-.53-9.808A3601.496 3601.496 0 0 0 40.02 20.76c-.157-3.378-.405-8.053-2.766-10.122-1.249 4.935-.11 11.878-.343 17.113-.325 7.296-.34 14.61-.196 21.912.293 14.757 1.246 29.475 1.677 44.224.236 8.088.318 16.189.047 24.277"/>
        <path fill="#72683B" d="M59.61 58.744c-.074 1.918-.207 3.882-1.001 5.64-1.303 2.88-4.25 4.815-7.362 5.688-3.11.874-6.407.83-9.643.723-.452-.015-.951-.015-1.29.276-.284.244-.377.63-.454.991-.289 1.34-.38 3.1.89 3.689.425.196.912.2 1.382.201l10.673.012c1.206.001 2.442-.002 3.578-.398 2.984-1.04 4.34-4.352 5.083-7.346a54.737 54.737 0 0 0 1.409-17.932c-.082-.931-.202-1.901-.73-2.681-2.451-3.616-2.53 1.663-2.49 3.042.078 2.698.062 5.398-.044 8.095M21.783 75.076c.075 1.918.207 3.882 1.002 5.64 1.303 2.88 4.25 4.814 7.362 5.688 3.11.874 6.407.83 9.643.723.452-.015.951-.015 1.289.276.285.244.377.63.454.991.29 1.339.38 3.099-.89 3.688-.424.197-.911.2-1.381.202l-10.673.011c-1.206.002-2.442-.001-3.578-.398-2.985-1.039-4.34-4.352-5.083-7.346a54.737 54.737 0 0 1-1.409-17.932c.082-.93.202-1.9.73-2.68 2.451-3.616 2.53 1.663 2.49 3.041-.078 2.699-.062 5.399.044 8.096"/>
        <g transform="translate(20 112)">
            <circle cx="22" cy="22" r="22" fill="#87B558"/>
            <path stroke="#FFF" d="M10 23l7 7 16-16"/>
        </g>
    </g>
</svg>
