<svg xmlns="http://www.w3.org/2000/svg" xmlns:xlink="http://www.w3.org/1999/xlink" width="85" height="120" viewBox="0 0 85 120">
    <defs>
        <path id="a" d="M0 .189h84.366v33.096H0z"/>
    </defs>
    <g fill="none" fill-rule="evenodd">
        <path fill="#755F4C" d="M36 119.302c4.361.051 8.725 1.543 13 .002-1.46-11.831-2.482-26.077-3.06-38.145-.577-12.042.053-24.237-.478-36.176-8.176-5.159-9.183 11.188-9.157 21.104.012 4.428-.047 53.218-.305 53.215"/>
        <path fill="#755F4C" d="M23.306 72.054c-.001.892.006 1.821.366 2.62.528 1.173 1.693 1.807 2.814 2.236a16.656 16.656 0 0 0 11.679.065c.222-.082.452-.176.604-.373.176-.23.21-.55.223-.85a10 10 0 0 0-.37-3.14c-3.179-.47-6.785 1.064-9.42-.954-1.369-1.05-2.112-2.873-2.364-4.693-.368-2.665.572-5.59-.12-8.176-.47-1.76-1.358-2.513-2.382-.903-2.19 3.44-1.028 10.289-1.03 14.168M53.79 67.32c0 .551-.004 1.126-.251 1.62-.363.727-1.165 1.12-1.936 1.385a12.64 12.64 0 0 1-8.028.041c-.153-.051-.312-.11-.416-.232-.121-.142-.145-.34-.153-.526a5.618 5.618 0 0 1 .254-1.943c2.185-.292 4.664.658 6.476-.592.941-.649 1.453-1.778 1.625-2.905.253-1.65-.393-3.46.082-5.06.324-1.09.934-1.556 1.638-.56 1.506 2.13.707 6.37.709 8.771"/>
        <path fill="#698727" d="M81.258 50.05c1.601 1.602 2.389 4.858 1.091 6.816-.978 1.478-2.675 1.672-4.195 1.76-1.84.108-3.922.1-5.233-1.588-.102 3.353-2.092 6.432-4.636 7.173-2.544.74-5.42-.92-6.702-3.87-1.942 2.545-4.225 4.923-6.973 5.537-2.747.614-6.002-1.121-6.843-4.557-4.76 3.86-10.652 5.397-16.26 4.238-2.461-.509-5.29-2.12-5.651-5.285-2.433 1.727-5.096 3.226-7.892 3.092-2.795-.136-5.72-2.332-6.43-5.814-1.702-.667-3.51-.046-5.246.39-1.735.435-3.695.621-5.137-.728-1.44-1.35-1.632-4.779.018-5.582.338-.165.726-.212.998-.517.507-.563.328-1.599.241-2.458-.37-3.66 2.224-7.28 5.094-7.105.924-3.64 4.265-5.115 7.216-5.719 12.358-2.526 24.8 1.46 37.187 1.854 7.135.227 16.782-4.999 23.426-.48 4.668 3.175 7.66 9.784.343 10.532 1.92.31 4.005.732 5.584 2.311"/>
        <g transform="translate(0 19)">
            <mask id="b" fill="#fff">
                <use xlink:href="#a"/>
            </mask>
            <path fill="#7E9933" d="M1.573 18.79C.019 20.497-.632 23.828.778 25.728c1.063 1.434 2.798 1.533 4.346 1.534 1.876.002 3.992-.125 5.245-1.904.26 3.376 2.425 6.367 5.045 6.968 2.62.6 5.468-1.242 6.634-4.291 2.092 2.455 4.522 4.723 7.344 5.183 2.821.46 6.05-1.477 6.745-4.992 5.018 3.62 11.078 4.829 16.724 3.336 2.479-.655 5.281-2.444 5.501-5.656 2.553 1.6 5.33 2.959 8.165 2.661 2.835-.297 5.707-2.682 6.268-6.235 1.699-.771 3.566-.249 5.35.09 1.783.339 3.785.413 5.188-1.031 1.402-1.444 1.439-4.915-.276-5.63-.351-.146-.748-.172-1.04-.462-.54-.54-.406-1.595-.358-2.468.208-3.713-2.597-7.214-5.506-6.872-1.108-3.619-4.572-4.914-7.6-5.353-12.678-1.835-25.141 2.906-37.715 4.018-7.242.64-17.29-4.074-23.835.869-4.598 3.472-7.335 10.311.139 10.643-1.938.425-4.038.97-5.57 2.654" mask="url(#b)"/>
        </g>
        <path fill="#9FAD49" d="M28.523 7.285C21.753 9.257 15.303 12.923 9.668 18c-1.396 1.257-2.888 3.022-2.64 5.146.204 1.77 1.638 3.003 3.064 3.2 1.426.196 2.839-.411 4.174-1.067-.38 2.384.704 5.007 2.48 6.005 1.779.997 4.072.272 5.253-1.662-.222 2.223.895 4.546 2.572 5.349 1.677.802 3.755.009 4.783-1.828.582 2.135 2.268 3.729 4.074 3.85s3.62-1.237 4.383-3.282c2.155 1.708 4.852 2.322 7.352 1.674 1.957-.506 4.054-2.368 3.823-4.843 1.789 2.01 4.385 2.394 6.793 2.383 1.598-.007 3.265-.17 4.636-1.191 1.37-1.022 2.339-3.133 1.85-5.029 2.105.571 4.28.727 6.423.462.748-.093 1.561-.282 2.046-.998.676-.997.37-2.613-.378-3.528-.746-.915-1.799-1.305-2.806-1.664 2.413-.58 4.664-2.16 6.313-4.43.476-.655.913-1.393 1.074-2.254.402-2.168-1.174-4.283-2.912-4.786-1.74-.502-3.544.151-5.251.8-.219-1.928-1.495-3.597-3.03-3.962-1.533-.364-3.212.602-3.985 2.294-.206-1.81-1.625-3.16-3.088-3.32-1.461-.161-2.902.675-4.013 1.87-.475.508-.947 1.112-1.566 1.225-.55.1-1.087-.216-1.592-.505-6.512-3.716-14.195-4.122-20.936-1.107-.543-1.866-2.03-3.113-3.583-3.557-1.552-.445-3.174-.208-4.746.11-.509.104-1.057.242-1.402.72-.328.457-.393 1.114-.42 1.726-.09 2.06.061 4.133.45 6.137"/>
        <path fill="#B2C65C" d="M34.568.087c-2.36.087-4.8.197-6.927 1.49-1.326.805-2.569 2.274-2.639 4.13-.07 1.856 1.65 3.66 2.901 2.68-.328 1.436-1.558 2.443-1.606 3.935-.032.998.575 1.968 1.352 2.158.778.19 1.628-.423 1.893-1.365-.233 1.992 1.537 3.614 3.129 3.493 1.593-.12 2.964-1.392 4.233-2.614.147 1.53.797 3.063 1.901 3.723 1.105.66 2.65.14 3.11-1.288.117-.363.186-.802.456-.997.34-.248.755.052 1.1.292 2.181 1.524 5.26.431 6.493-2.304 1.024 1.55 3.103 1.82 4.267.439 1.164-1.383.988-4.184-.4-5.184 1.548-.984 1.285-4.158-.083-5.503-1.868-1.838-5.655-1.664-7.978-2.31-3.68-1.02-7.458-.913-11.202-.775"/>
    </g>
</svg>
