<svg xmlns="http://www.w3.org/2000/svg" xmlns:xlink="http://www.w3.org/1999/xlink" width="76" height="116" viewBox="0 0 76 116">
    <defs>
        <path id="a" d="M0 .575h75.932v81.8H0z"/>
    </defs>
    <g fill="none" fill-rule="evenodd">
        <g>
            <mask id="b" fill="#fff">
                <use xlink:href="#a"/>
            </mask>
            <path fill="#FF9F9F" d="M26.902 2.172c-4.241 1.96-6.843 7.768-3.766 11.205a55.213 55.213 0 0 0-8.964 2.78c-.98.397-1.976.843-2.69 1.603-1.473 1.564-1.327 4.087-.253 5.93 1.074 1.841 2.878 3.16 4.632 4.423-6.176.21-11.973 4.537-13.741 10.26-1.769 5.721.622 12.412 5.668 15.86-.983 1.885-3.843 1.68-5.695 2.797-2.33 1.406-2.576 4.743-1.419 7.15 1.158 2.409 3.32 4.193 5.16 6.164.761.816 1.504 1.739 1.634 2.83.083.7-.098 1.406-.062 2.11.148 2.984 3.747 4.482 6.765 5.13 18.535 3.984 38.418 1.848 55.595-5.972 1.327-.603 2.654-1.25 3.745-2.198 4.17-3.62 2.71-11.392-2.511-13.364 3.033-2.066 3.507-6.496 1.868-9.713-1.639-3.217-4.868-5.397-8.185-7.004 4.523-1.508 6.103-7.471 4.048-11.647-2.055-4.175-6.627-6.68-11.224-7.962 2.683-1.801 3.655-5.618 2.144-8.417-1.512-2.798-5.308-4.21-8.37-3.113 3.715-1.33-6.418-9.574-8.203-9.922-4.35-.846-12.13-.8-16.176 1.07" mask="url(#b)"/>
        </g>
        <path fill="#A55D46" d="M36.599 115.761c1.956.407 4.646.47 5.28-1.262.208-.565.105-1.18.01-1.77-2.55-15.8 1.625-32.002-.752-47.824-.713-4.745-2.01-9.413-2.517-14.181-.476-4.479 1.097-13.002-1.878-16.724-2.937 1.935-1.324 8.065-1.09 10.702a474.272 474.272 0 0 1 .948 71.06"/>
        <path stroke="#A55D46" stroke-linecap="round" stroke-linejoin="round" stroke-width="3" d="M19.021 50c.538 4.68-1.047 9.812 1.375 13.896 1.555 2.62 4.457 4.194 7.322 5.395 3.884 1.627 8.051 2.82 12.282 2.7"/>
        <path stroke="#A55D46" stroke-linecap="round" stroke-linejoin="round" stroke-width="3" d="M25.292 54A23.34 23.34 0 0 1 26 59.79c-.005 1.03-.084 2.082-.529 3.045-.445.962-1.306 1.833-2.471 2.165M15 69c-.018 1.149 1.061 1.934 2.017 2.491 1.48.863 3.111 1.74 4.781 1.454 1.73-.297 3.036-1.759 4.202-3.136M40 62.99c4.268.169 8.459-1.985 11.133-5.255 2.673-3.27 3.904-7.542 3.866-11.735"/>
        <path stroke="#A55D46" stroke-linecap="round" stroke-linejoin="round" stroke-width="3" d="M60 47c-.585 1.929-1.227 3.896-2.518 5.489-1.29 1.593-3.381 2.757-5.482 2.466M44 25a57.422 57.422 0 0 1-2.307 13.862C40.95 41.377 39.701 44.171 37 45M26 35a21.67 21.67 0 0 0 2.725 9.367c.737 1.318 1.637 2.589 2.881 3.49 1.245.9 2.883 1.388 4.394 1.02M48.954 30c.22 1.646-.363 3.386-1.52 4.535-1.157 1.15-2.858 1.68-4.434 1.384M55 67c-.532 3.013-2.327 5.808-4.905 7.632-2.577 1.824-5.907 2.658-9.095 2.278M47 68c1.588 1.519 2.672 3.687 3 6"/>
        <path fill="#FCC0C0" d="M32.865 10.906c.017-.312.17-.627.446-.795.277-.167.68-.15.903.078.207.212.22.533.188.82-.02.183-.093.404-.283.432a2.96 2.96 0 0 1 1.298-.376.519.519 0 0 1 .205.02c.106.04.171.142.229.236.121.2.233.478.055.634a.46.46 0 0 1-.146.08c-.32.124-.673.17-1.016.133.304.02.604.082.889.184.087.032.177.07.232.142.061.078.128.324.134.42.008.153-.043.164-.033.317.002.052.005.108-.023.153-.028.048-.084.074-.137.094-.466.17-1.046-.012-1.312-.415.083.254-.04.541-.254.71-.215.169-.505.232-.784.227-.285-.005-.614-.118-.687-.38-.072-.258.141-.503.339-.693-.445.122-.967-.158-1.086-.584-.031-.113-.036-.241.03-.342.2-.311 1.001-.222 1.215-.431 0 0-.415-.409-.402-.664M42.65 19.436c.19-.25.503-.434.838-.436.336-.002.675.209.738.507.059.275-.113.546-.305.767-.121.14-.31.285-.491.216.466.01.93.122 1.338.327.062.03.124.064.166.115.07.086.069.201.064.307-.007.223-.07.507-.312.548a.54.54 0 0 1-.173-.006 2.241 2.241 0 0 1-.957-.387c.252.165.477.363.665.587.058.068.114.144.122.23.007.095-.075.33-.125.412-.08.13-.13.114-.21.244a.273.273 0 0 1-.106.115.291.291 0 0 1-.172.01c-.501-.087-.899-.522-.9-.983-.072.249-.342.426-.624.46-.283.033-.57-.057-.808-.197-.244-.144-.465-.399-.379-.65.085-.248.41-.344.69-.404-.457-.117-.748-.603-.609-1.012a.433.433 0 0 1 .22-.267c.352-.158.994.307 1.3.24 0 0-.128-.54.03-.743M42.65 8.436c.19-.25.503-.434.839-.436.335-.002.674.21.737.507.059.275-.113.546-.305.767-.121.14-.31.285-.491.216.466.01.93.122 1.34.327.06.03.122.064.164.115.07.086.069.201.064.307-.007.223-.07.507-.312.548a.542.542 0 0 1-.173-.006 2.241 2.241 0 0 1-.957-.387c.252.165.478.363.665.587.058.068.114.144.122.23.007.095-.074.33-.125.412-.08.13-.13.114-.21.244a.273.273 0 0 1-.106.115.291.291 0 0 1-.172.01c-.501-.087-.899-.522-.9-.983-.072.25-.342.426-.624.46-.283.033-.57-.057-.808-.197-.244-.144-.465-.399-.379-.65.086-.248.41-.344.69-.404-.457-.117-.748-.603-.609-1.012a.433.433 0 0 1 .22-.267c.352-.158.995.307 1.3.24 0 0-.128-.54.03-.743M23.65 21.436c.19-.25.503-.434.838-.436.336-.002.675.209.738.507.059.275-.113.546-.305.767-.121.14-.31.285-.491.216.466.01.93.122 1.338.327.062.03.124.064.166.115.07.086.069.201.064.307-.007.223-.07.507-.312.548a.54.54 0 0 1-.173-.006 2.241 2.241 0 0 1-.957-.387c.252.165.477.363.665.587.058.068.114.144.122.23.007.095-.074.33-.125.412-.08.13-.13.114-.21.244a.273.273 0 0 1-.106.115.291.291 0 0 1-.172.01c-.501-.087-.899-.522-.9-.983-.072.25-.342.426-.624.46-.283.033-.57-.057-.808-.197-.244-.144-.465-.399-.379-.65.086-.248.41-.344.69-.404-.457-.117-.748-.603-.609-1.012a.433.433 0 0 1 .22-.267c.352-.158.994.307 1.3.24 0 0-.128-.54.03-.743M28.605 15.077c-.04-.308.05-.647.285-.867.235-.22.623-.285.877-.108.236.165.306.477.326.764.013.182-.017.412-.194.48a2.922 2.922 0 0 1 1.175-.632.479.479 0 0 1 .199-.022c.11.018.19.103.262.183.151.17.308.42.166.608a.472.472 0 0 1-.126.108 2.128 2.128 0 0 1-.948.338c.294-.043.592-.044.883-.002a.471.471 0 0 1 .248.092c.072.064.18.29.203.384.035.147-.012.168.024.315.012.051.024.105.006.155-.02.052-.067.09-.115.119-.415.262-1.003.2-1.328-.138.125.23.059.537-.117.745-.176.209-.441.329-.709.381-.274.053-.608.009-.725-.232-.115-.238.046-.52.2-.746-.403.21-.952.042-1.142-.349-.05-.105-.077-.229-.033-.34.137-.345.919-.421 1.086-.669 0 0-.47-.314-.503-.567M43.15 49.692c.089-.302.31-.57.617-.662.307-.091.693.031.856.315.15.263.088.582-.01.855-.062.174-.185.372-.375.35a2.88 2.88 0 0 1 1.344-.027.52.52 0 0 1 .192.074c.094.068.133.184.167.293.072.227.115.53-.094.636a.46.46 0 0 1-.16.04c-.338.037-.69-.01-1.014-.137.29.1.566.24.817.416a.518.518 0 0 1 .192.2c.04.093.048.352.03.45-.026.152-.078.148-.106.301-.009.052-.02.108-.057.145-.039.038-.098.05-.154.055a1.18 1.18 0 0 1-1.172-.753c.021.27-.164.52-.412.63-.247.108-.542.094-.81.015-.275-.08-.567-.279-.576-.555-.01-.273.254-.456.49-.591-.46.003-.898-.41-.915-.86-.004-.12.022-.247.108-.328.268-.253 1.021.046 1.276-.103 0 0-.306-.511-.233-.759M45.15 39.692c.089-.302.31-.57.617-.662.307-.091.693.031.856.315.15.263.087.582-.01.855-.062.174-.185.372-.375.35a2.87 2.87 0 0 1 1.344-.027.508.508 0 0 1 .192.075c.094.067.133.183.167.292.072.227.115.53-.094.636a.46.46 0 0 1-.16.04c-.338.037-.69-.01-1.014-.137.29.1.566.24.817.416a.518.518 0 0 1 .192.2c.04.093.048.352.03.45-.027.152-.078.148-.106.301-.009.052-.02.108-.057.145-.039.038-.098.05-.154.055a1.18 1.18 0 0 1-1.172-.753c.021.27-.164.52-.412.63-.247.108-.542.094-.81.015-.275-.08-.567-.279-.576-.555-.01-.273.254-.456.49-.591-.46.003-.898-.41-.915-.86-.004-.12.022-.247.108-.328.268-.253 1.021.046 1.276-.103 0 0-.306-.511-.233-.759M33.65 28.436c.19-.25.503-.434.838-.436.336-.002.675.209.738.507.059.275-.113.546-.305.767-.121.14-.31.285-.491.216.466.01.93.122 1.338.327.062.03.124.064.166.115.07.086.069.201.064.307-.008.223-.07.507-.312.548a.54.54 0 0 1-.173-.006 2.241 2.241 0 0 1-.957-.387c.252.165.477.363.665.587.058.068.114.144.122.23.007.095-.074.33-.125.412-.08.13-.13.114-.21.244a.273.273 0 0 1-.106.115.291.291 0 0 1-.172.01c-.501-.087-.899-.522-.9-.983-.072.25-.342.426-.624.46-.283.033-.57-.057-.808-.197-.244-.144-.465-.399-.379-.65.085-.248.41-.344.69-.404-.457-.117-.748-.603-.609-1.012a.433.433 0 0 1 .22-.267c.352-.158.994.307 1.298.24 0 0-.126-.54.031-.743M53.601 34.046c-.04-.309.048-.645.282-.855.235-.211.623-.263.878-.075.235.173.306.486.328.774.013.182-.017.411-.193.472a2.789 2.789 0 0 1 1.173-.588c.065-.015.133-.028.198-.015.11.022.19.11.262.193.152.175.31.43.168.613a.458.458 0 0 1-.125.103 2.062 2.062 0 0 1-.947.303c.294-.032.592-.022.883.03a.488.488 0 0 1 .247.1c.073.067.182.298.204.392.036.149-.011.168.025.316.013.051.025.105.007.154-.019.052-.067.087-.115.115a1.106 1.106 0 0 1-1.327-.185c.125.234.06.537-.116.739-.174.202-.44.313-.707.355-.273.043-.609-.014-.726-.258-.115-.242.045-.518.2-.738-.404.195-.953.007-1.144-.39-.051-.107-.078-.233-.034-.342.137-.34.917-.387 1.084-.628 0 0-.471-.331-.505-.585M60.66 40.432a1.1 1.1 0 0 1 .841-.432c.335 0 .674.212.735.51.057.275-.116.545-.31.765-.12.139-.31.284-.491.214.466.011.93.126 1.336.332.062.031.124.066.165.117.068.086.067.2.062.306-.01.224-.072.508-.315.548a.54.54 0 0 1-.173-.007 2.244 2.244 0 0 1-.954-.39c.251.164.475.364.662.587.057.07.113.146.12.232.007.094-.076.328-.127.41-.08.13-.13.114-.21.243a.275.275 0 0 1-.107.115.291.291 0 0 1-.173.01c-.5-.09-.895-.526-.894-.987-.073.248-.344.424-.627.456-.283.033-.568-.059-.806-.2-.243-.145-.462-.4-.374-.651.086-.247.41-.342.69-.401-.455-.119-.743-.606-.602-1.014a.434.434 0 0 1 .222-.266c.353-.156.992.312 1.297.245 0 0-.124-.54.034-.742M66.66 57.432a1.1 1.1 0 0 1 .841-.432c.335 0 .673.212.735.51.056.275-.116.545-.31.765-.12.139-.311.284-.491.214.466.011.929.126 1.337.332.06.031.123.066.164.117.068.086.067.2.062.307-.01.223-.073.507-.315.547a.54.54 0 0 1-.173-.007 2.244 2.244 0 0 1-.954-.39c.251.164.475.364.662.587.057.07.113.146.12.232.006.094-.076.329-.127.41-.08.13-.13.114-.21.243a.275.275 0 0 1-.108.115.291.291 0 0 1-.172.01c-.5-.09-.896-.526-.894-.987-.073.248-.344.424-.627.456-.283.033-.568-.059-.805-.2-.244-.145-.463-.4-.375-.651.086-.247.41-.342.69-.401-.455-.119-.743-.606-.602-1.014a.434.434 0 0 1 .222-.266c.352-.156.991.31 1.296.245 0 0-.123-.54.035-.742M12.66 55.432a1.1 1.1 0 0 1 .841-.432c.335 0 .674.212.735.51.057.275-.116.545-.31.765-.12.139-.31.284-.491.214.466.011.93.126 1.336.332.062.031.124.066.165.117.068.086.067.2.062.307-.01.223-.072.507-.315.547a.54.54 0 0 1-.173-.007 2.244 2.244 0 0 1-.954-.39c.251.164.475.364.662.587.057.07.113.146.12.232.007.094-.076.329-.127.41-.08.13-.13.114-.21.244a.278.278 0 0 1-.107.114.291.291 0 0 1-.173.01c-.5-.09-.895-.526-.894-.987-.073.248-.344.424-.627.456-.283.033-.568-.059-.806-.2-.243-.145-.462-.4-.374-.651.086-.247.41-.342.69-.401-.454-.119-.743-.606-.602-1.014a.434.434 0 0 1 .222-.266c.353-.156.992.312 1.297.245 0 0-.124-.54.034-.742M7.266 46.896c-.07-.227-.05-.49.093-.679.143-.189.42-.278.631-.171.195.1.288.326.342.539.035.135.043.31-.077.38.206-.259.476-.465.779-.596a.348.348 0 0 1 .143-.037c.082.003.153.058.217.111.134.111.283.283.204.439a.35.35 0 0 1-.078.094c-.184.169-.41.29-.652.35.21-.063.43-.093.65-.092.066 0 .138.006.194.043.061.04.171.2.201.267.046.107.014.128.06.234a.21.21 0 0 1 .026.115c-.007.04-.038.074-.069.101a.804.804 0 0 1-.995.034c.123.16.116.396.014.57a.858.858 0 0 1-.47.359c-.194.068-.446.07-.564-.099-.117-.166-.036-.394.047-.58a.651.651 0 0 1-.887-.143c-.051-.074-.088-.165-.07-.253.054-.272.618-.41.708-.612 0 0-.388-.188-.447-.374M23.763 46.611a.757.757 0 0 1 .404-.559c.22-.102.516-.054.659.138.133.176.112.419.062.632-.033.136-.107.295-.25.3.31-.133.655-.191.994-.17.05.004.104.01.148.033.076.04.114.121.148.197.07.16.127.38-.02.481a.34.34 0 0 1-.115.048c-.247.066-.512.07-.763.013.223.04.439.112.64.215a.365.365 0 0 1 .158.126.857.857 0 0 1 .059.329c-.008.115-.047.119-.055.235-.003.039-.006.081-.03.113-.026.033-.07.048-.111.058-.36.088-.77-.1-.929-.425.038.198-.08.403-.255.512-.174.108-.394.13-.6.102-.21-.029-.441-.142-.47-.346-.03-.2.151-.365.315-.491-.34.054-.699-.203-.747-.533-.013-.088-.003-.185.054-.255.178-.216.76-.08.938-.218 0 0-.268-.344-.234-.535M17.576 32.06c-.046-.308.037-.645.267-.86.23-.216.616-.274.873-.09.239.168.315.48.341.769.018.182-.008.411-.184.475.33-.29.73-.5 1.16-.608a.466.466 0 0 1 .198-.019c.11.02.192.107.265.189.155.172.316.425.178.61a.459.459 0 0 1-.123.106c-.28.181-.606.292-.94.32.293-.038.591-.033.881.015.09.015.183.036.25.096.073.066.186.294.21.388.039.148-.008.168.03.316.014.05.027.105.01.154-.018.052-.065.088-.112.117a1.102 1.102 0 0 1-1.328-.163c.129.232.069.536-.102.742-.17.205-.433.32-.699.367-.272.047-.608-.003-.729-.246-.119-.24.036-.519.185-.741-.398.201-.95.023-1.147-.372-.053-.105-.082-.23-.04-.34.13-.343.908-.403 1.07-.648 0 0-.476-.324-.514-.576M7.733 37.26a.533.533 0 0 1 .392-.258c.166-.017.346.074.394.221.044.135-.026.28-.109.4-.052.075-.138.157-.232.13.232-.016.469.02.682.104a.237.237 0 0 1 .09.05c.038.04.044.098.048.151.009.114-.006.259-.125.29a.243.243 0 0 1-.086.006 1.12 1.12 0 0 1-.495-.15c.134.07.257.16.362.263.032.032.064.068.073.11a.527.527 0 0 1-.04.214c-.032.069-.057.063-.089.132a.141.141 0 0 1-.046.063c-.025.015-.056.015-.085.013-.254-.02-.476-.221-.502-.453-.022.128-.146.23-.284.26a.651.651 0 0 1-.411-.062c-.129-.061-.252-.18-.224-.31.028-.128.184-.191.32-.234-.233-.039-.405-.269-.358-.481.012-.057.04-.114.094-.145.166-.095.51.11.657.061 0 0-.093-.265-.026-.375M28.733 23.26a.533.533 0 0 1 .392-.258c.166-.017.346.074.394.221.044.135-.026.28-.109.4-.052.075-.138.157-.231.13.231-.016.468.02.682.104a.246.246 0 0 1 .088.05c.039.04.045.098.05.151.007.114-.007.259-.126.29a.245.245 0 0 1-.085.006 1.117 1.117 0 0 1-.496-.15c.134.07.257.16.362.264.032.031.064.067.073.11a.527.527 0 0 1-.04.213c-.031.07-.057.063-.089.132-.01.024-.023.049-.047.063a.146.146 0 0 1-.085.013c-.253-.02-.474-.221-.5-.453-.022.128-.147.23-.285.26a.651.651 0 0 1-.41-.062c-.13-.061-.254-.18-.225-.31.028-.128.184-.191.32-.234-.233-.039-.405-.269-.358-.481a.216.216 0 0 1 .094-.145c.166-.095.51.11.657.061 0 0-.093-.266-.026-.375M26.733 7.26a.533.533 0 0 1 .392-.258c.166-.017.346.074.394.221.044.135-.026.28-.109.4-.052.075-.138.157-.232.13.232-.016.469.02.682.104a.246.246 0 0 1 .09.05c.038.04.044.098.048.151.009.114-.006.259-.125.29a.243.243 0 0 1-.086.006 1.129 1.129 0 0 1-.495-.15c.134.07.257.16.362.263.032.032.064.068.073.11a.527.527 0 0 1-.04.214c-.032.069-.057.063-.089.132-.011.023-.024.049-.047.063-.024.015-.055.015-.085.013-.253-.02-.475-.221-.5-.453-.023.128-.147.23-.285.26a.651.651 0 0 1-.411-.062c-.129-.061-.253-.18-.224-.31.028-.128.184-.191.32-.234-.233-.039-.405-.269-.358-.481a.216.216 0 0 1 .094-.145c.166-.095.51.109.657.061 0 0-.093-.265-.026-.375M52.733 20.26a.533.533 0 0 1 .392-.258c.166-.017.346.074.394.221.044.135-.026.28-.109.4-.052.075-.138.157-.232.13.232-.016.469.02.682.104a.237.237 0 0 1 .09.05c.038.04.044.098.048.151.009.114-.006.259-.125.29a.245.245 0 0 1-.086.006 1.123 1.123 0 0 1-.495-.15c.134.07.257.16.362.263.032.032.064.068.073.11a.527.527 0 0 1-.04.214c-.032.069-.057.063-.089.132a.141.141 0 0 1-.046.063c-.025.015-.056.015-.085.013-.254-.02-.476-.221-.502-.453-.022.128-.146.23-.284.26a.651.651 0 0 1-.411-.062c-.129-.061-.253-.18-.224-.31.028-.128.184-.191.32-.234-.233-.039-.405-.269-.358-.481.012-.057.04-.114.094-.145.166-.095.51.11.657.061 0 0-.093-.265-.026-.375M49.273 45.539a.493.493 0 0 1 .123-.434c.112-.11.305-.143.435-.054.12.082.161.238.179.38.01.092 0 .207-.087.24.16-.148.359-.257.571-.316a.25.25 0 0 1 .099-.011c.055.009.097.051.134.092.08.085.163.209.095.303a.236.236 0 0 1-.06.055 1.022 1.022 0 0 1-.465.17c.146-.023.294-.024.44-.002a.24.24 0 0 1 .125.045.578.578 0 0 1 .11.192c.02.074-.003.084.018.158.008.025.014.052.006.077-.008.026-.031.044-.054.06a.547.547 0 0 1-.664-.068c.067.115.04.268-.043.372a.58.58 0 0 1-.344.192c-.135.026-.303.005-.366-.115-.063-.12.012-.26.084-.374a.442.442 0 0 1-.577-.174c-.027-.052-.043-.114-.023-.17.06-.173.448-.21.526-.335 0 0-.24-.157-.262-.283M62.273 29.539a.495.495 0 0 1 .123-.434c.112-.11.305-.143.435-.054.12.082.161.238.179.38.01.092 0 .207-.087.24.16-.148.359-.257.571-.316a.25.25 0 0 1 .099-.011c.055.009.097.051.134.092.08.085.163.209.095.303a.236.236 0 0 1-.06.055 1.022 1.022 0 0 1-.465.17c.146-.023.294-.024.44-.002a.24.24 0 0 1 .125.045.578.578 0 0 1 .11.192c.02.074-.003.084.018.158.008.025.014.052.006.077-.008.026-.031.044-.054.06a.547.547 0 0 1-.664-.068c.067.115.04.268-.043.372a.577.577 0 0 1-.344.192c-.135.026-.303.005-.366-.115-.063-.12.012-.26.084-.374a.442.442 0 0 1-.577-.174c-.027-.052-.043-.114-.023-.17.06-.173.448-.21.526-.335 0 0-.24-.157-.262-.283M57.273 60.539a.495.495 0 0 1 .123-.434c.112-.11.305-.143.435-.054.12.082.162.238.179.38.01.092 0 .207-.087.24.16-.148.359-.257.571-.315a.238.238 0 0 1 .099-.012c.055.009.097.051.134.092.08.085.163.209.095.303a.236.236 0 0 1-.06.055 1.022 1.022 0 0 1-.465.17c.146-.023.294-.024.44-.002a.24.24 0 0 1 .125.045.578.578 0 0 1 .11.192c.02.074-.003.084.018.158.008.025.014.052.006.077-.008.026-.031.044-.054.06a.548.548 0 0 1-.664-.068c.067.115.04.268-.043.372a.577.577 0 0 1-.344.192c-.135.026-.303.005-.366-.115-.063-.12.012-.26.084-.374a.442.442 0 0 1-.577-.173c-.027-.053-.043-.115-.023-.17.06-.174.448-.212.526-.336 0 0-.24-.157-.262-.283"/>
    </g>
</svg>
