<svg xmlns="http://www.w3.org/2000/svg" xmlns:xlink="http://www.w3.org/1999/xlink" width="118" height="149" viewBox="0 0 118 149">
    <defs>
        <path id="a" d="M.214.925h33.658v34.573H.214z"/>
        <path id="c" d="M.934.168h41.843v44.347H.934z"/>
        <path id="e" d="M0 .354h41.628v44.348H0z"/>
    </defs>
    <g fill="none" fill-rule="evenodd">
        <path stroke="#AEA14B" stroke-linecap="square" stroke-width="2" d="M1.283 136.994h115.04"/>
        <g transform="translate(38.746 -.753)">
            <mask id="b" fill="#fff">
                <use xlink:href="#a"/>
            </mask>
            <path fill="#D3C863" d="M24.675 2.068C17.758-.417 9.695 1.226 4.097 6.26c-.958.862-1.859 1.83-2.463 3.007C.874 10.747.625 12.46.457 14.14c-.323 3.201-.4 6.468.251 9.611.65 3.142 2.08 6.17 4.377 8.229 2.706 2.426 6.342 3.303 9.858 3.48 3.52.179 7.08-.27 10.427-1.456 1.93-.684 3.834-1.648 5.228-3.241 1.203-1.375 1.957-3.144 2.462-4.955 1.489-5.327.91-11.287-1.567-16.168-.935-1.84-5.023-6.758-6.818-7.572" mask="url(#b)"/>
        </g>
        <path stroke="#E2D788" stroke-linecap="round" stroke-linejoin="round" d="M47.117 7.619c-2.95 2.714-4.727 6.71-4.783 10.763M42.395 20.774c-.313 2.626.587 5.398 2.33 7.176M48.313 30.342a5.227 5.227 0 0 0 1.96 2.301c.804.522 1.692.807 2.583.996.87.185 1.751.282 2.633.29M45.922 13.598c-1.086 1.69-1.464 3.95-1.005 5.98M48.313 23.166c.524 1.947 1.831 3.69 3.588 4.784M50.926 15.99a9.588 9.588 0 0 0 .423 5.497c.088.229.257.5.534.482M53.097 24.362a3.043 3.043 0 0 0 1.958 1.895c.797.25 1.622.193 2.438.225.155.007.35.058.388.272M57.881 30.175c1.39.354 2.82.088 4.208-.277a31.902 31.902 0 0 0 5.36-1.948M61.469 32.734c1.72-.602 3.441-1.203 5.161-1.802.303-.106.628-.234.819-.59M49.51 12.402c1.879-2.372 4.423-4.068 7.175-4.783M49.51 5.227c.792-.883 1.794-1.436 2.823-1.777 1.03-.34 2.096-.479 3.156-.615M44.726 5.227a10.97 10.97 0 0 1 3.587-2.392M59.077 4.052a8.05 8.05 0 0 1 4.784 1.175M59.077 10.01c-1.228.908-1.743 2.47-2.165 3.935-.193.674-.375 1.428-.043 2.045M59.077 19.578c1.034.995 2.185 1.82 3.435 2.19 1.25.37 2.608.255 3.74-.534M61.526 12.402c-.186.733.102 1.517.577 2.114.476.597 1.121 1.04 1.758 1.474M67.449 11.206c.884 1.734 1.305 3.886 1.171 5.98M69.84 20.774c-.363 1.51-1.017 3.072-2.366 3.914-1.053.658-2.362.773-3.613.87M60.273 7.619c1.745-.005 3.484.43 4.784 1.196"/>
        <g transform="translate(60.273 29.146)">
            <mask id="d" fill="#fff">
                <use xlink:href="#c"/>
            </mask>
            <path fill="#D1BD2F" d="M31.343 1.634C22.744-1.554 12.72.554 5.76 7.012 4.57 8.117 3.45 9.36 2.698 10.869c-.945 1.897-1.253 4.095-1.463 6.25-.401 4.106-.496 8.298.312 12.328.81 4.03 2.587 7.914 5.442 10.556 3.364 3.112 7.884 4.235 12.255 4.464 4.377.229 8.8-.346 12.963-1.869 2.4-.877 4.767-2.113 6.5-4.156 1.496-1.765 2.432-4.034 3.061-6.357 1.85-6.832 1.132-14.477-1.949-20.739-1.162-2.36-6.245-8.667-8.476-9.712" mask="url(#d)"/>
        </g>
        <path stroke="#E0CE68" stroke-linecap="round" stroke-linejoin="round" stroke-width="1.5" d="M69.84 39.91c-2.95 3.317-4.727 8.202-4.783 13.155M66.345 55.457c-.47 3.501.88 7.198 3.496 9.567M72.232 67.416c.58 1.005 1.54 1.78 2.613 2.302 1.072.521 2.255.807 3.443.996 1.16.185 2.336.282 3.512.29M69.84 47.085c-1.085 2.366-1.464 5.528-1.003 8.372M72.232 59.044c.698 2.434 2.442 4.613 4.784 5.98M77.24 49.477a13.486 13.486 0 0 0 .43 6.596c.09.275.261.6.542.579M79.408 60.24c.466 1.031 1.451 1.645 2.447 1.895.997.249 2.028.193 3.049.225.193.006.436.058.484.272M84.192 66.053c1.737.354 3.526.09 5.26-.277 2.27-.479 4.51-1.13 6.7-1.948M90.172 69.808l7.226-1.802c.423-.106.88-.234 1.145-.59M73.428 44.693c2.193-2.966 5.16-5.086 8.372-5.98M74.624 35.125c1.11-.882 2.513-1.436 3.954-1.777 1.443-.34 2.934-.478 4.418-.614M68.645 36.321c1.407-1.57 3.038-2.793 4.783-3.587M86.584 35.146c2.074-.122 4.19.294 5.98 1.175M85.388 42.301c-1.228 1.271-1.744 3.456-2.165 5.51-.194.94-.375 1.998-.043 2.862M86.584 54.26c1.207.996 2.55 1.821 4.008 2.191 1.457.369 3.042.254 4.363-.535M89.033 44.693c-.186.976.102 2.022.577 2.818.475.796 1.122 1.388 1.758 1.966M96.151 43.497c1.77 2.08 2.612 4.662 2.343 7.176M99.74 55.457c-.436 1.886-1.221 3.84-2.84 4.892-1.265.822-2.835.966-4.336 1.087M88.976 39.91c1.745-.01 3.484.86 4.784 2.391"/>
        <g transform="translate(11.239 45.889)">
            <mask id="f" fill="#fff">
                <use xlink:href="#e"/>
            </mask>
            <path fill="#C1A816" d="M30.253 1.82C21.698-1.367 11.724.74 4.802 7.2c-1.185 1.105-2.298 2.348-3.047 3.857C.815 12.953.508 15.15.3 17.306c-.4 4.105-.495 8.297.31 12.327.805 4.031 2.574 7.915 5.415 10.557 3.345 3.112 7.843 4.235 12.191 4.464 4.354.228 8.755-.347 12.896-1.869 2.387-.877 4.742-2.113 6.466-4.156 1.488-1.765 2.42-4.034 3.046-6.357 1.84-6.833 1.125-14.477-1.94-20.738-1.156-2.361-6.212-8.669-8.431-9.714" mask="url(#f)"/>
        </g>
        <path stroke="#D8BF44" stroke-linecap="round" stroke-linejoin="round" stroke-width="1.5" d="M19.61 56.653c-2.951 3.318-4.727 8.203-4.783 13.155M16.115 72.2c-.47 3.502.88 7.198 3.496 9.567M22.002 84.16c.58 1.004 1.54 1.779 2.613 2.3 1.072.523 2.255.808 3.444.997 1.16.185 2.335.283 3.511.29M20.807 63.828c-1.086 2.367-1.465 5.53-1.004 8.372M22.002 75.788c.698 2.433 2.44 4.612 4.784 5.98M27.01 66.22a13.486 13.486 0 0 0 .43 6.597c.09.274.261.599.542.578M29.178 76.984c.466 1.03 1.451 1.645 2.448 1.894.996.25 2.027.193 3.048.226.194.005.436.058.484.272M33.962 82.797c1.737.353 3.526.089 5.26-.278a46.74 46.74 0 0 0 6.7-1.947M39.942 86.551l7.226-1.802c.423-.105.88-.233 1.145-.59M24.394 61.436c2.193-2.966 5.16-5.086 8.372-5.98M25.59 51.869c1.11-.882 2.513-1.437 3.954-1.777 1.443-.34 2.934-.479 4.418-.615M18.415 53.065c1.407-1.57 3.038-2.794 4.783-3.588M36.354 51.89c2.075-.123 4.19.293 5.98 1.175M35.158 59.044c-1.228 1.271-1.743 3.458-2.165 5.51-.193.941-.375 1.998-.043 2.862M36.354 71.004c1.207.996 2.55 1.82 4.008 2.19 1.457.37 3.042.255 4.364-.535M38.803 61.436c-.186.976.102 2.023.577 2.818.475.797 1.122 1.388 1.758 1.966M47.117 60.24c1.77 2.08 2.612 4.662 2.343 7.176M49.51 72.2c-.436 1.886-1.221 3.84-2.84 4.894-1.264.821-2.835.965-4.336 1.086M38.746 56.653c1.745-.01 3.484.86 4.784 2.391"/>
        <path fill="#72683B" d="M56.422 138.387c-.073 2.193-.176 4.426-.78 6.475-.255.867-.602 1.82-.326 2.677.392 1.22 1.677 1.286 2.686 1.153l6.961-.912c.615-8.438-1.965-16.653-2.914-25.038-.43-3.8-.524-7.65-.623-11.49a4206.161 4206.161 0 0 0-3.147-86.99c-.183-3.959-.475-9.436-3.25-11.86-1.468 5.783-.13 13.917-.403 20.051-.382 8.548-.4 17.117-.23 25.674.343 17.29 1.464 34.534 1.97 51.815.278 9.477.374 18.968.056 28.445"/>
        <path fill="#72683B" d="M81.31 68.767c-.089 2.248-.245 4.55-1.178 6.61-1.531 3.374-4.997 5.64-8.654 6.663-3.656 1.024-7.531.972-11.335.847-.53-.017-1.118-.017-1.516.323-.334.287-.443.74-.533 1.162-.34 1.569-.447 3.63 1.046 4.321.498.23 1.072.236 1.624.236l12.545.014c1.418.002 2.87-.002 4.206-.466 3.509-1.218 5.101-5.1 5.975-8.607a63.933 63.933 0 0 0 1.656-21.01c-.096-1.091-.237-2.228-.859-3.142-2.88-4.236-2.972 1.95-2.926 3.564.092 3.162.073 6.326-.051 9.485M36.844 87.903c.089 2.247.244 4.548 1.178 6.608 1.531 3.375 4.997 5.641 8.654 6.664 3.656 1.025 7.531.972 11.335.848.53-.018 1.118-.018 1.515.323.335.286.444.739.534 1.161.34 1.57.447 3.631-1.046 4.322-.499.23-1.072.235-1.624.236l-12.545.013c-1.419.002-2.87-.002-4.206-.466-3.509-1.218-5.101-5.099-5.975-8.607a63.933 63.933 0 0 1-1.656-21.01c.095-1.091.236-2.228.858-3.142 2.88-4.236 2.973 1.95 2.927 3.565-.092 3.161-.073 6.325.051 9.485"/>
    </g>
</svg>
